<?xml version="1.0" encoding="UTF-8" standalone="no"?>
<!-- Created with Inkscape (http://www.inkscape.org/) -->

<svg
   xmlns:dc="http://purl.org/dc/elements/1.1/"
   xmlns:cc="http://creativecommons.org/ns#"
   xmlns:rdf="http://www.w3.org/1999/02/22-rdf-syntax-ns#"
   xmlns:svg="http://www.w3.org/2000/svg"
   xmlns="http://www.w3.org/2000/svg"
   xmlns:sodipodi="http://sodipodi.sourceforge.net/DTD/sodipodi-0.dtd"
   xmlns:inkscape="http://www.inkscape.org/namespaces/inkscape"
   version="1.1"
   id="svg2"
   xml:space="preserve"
   width="64"
   height="64"
   viewBox="0 0 64 63.999999"
   sodipodi:docname="GitHub-Mark.svg"
   inkscape:version="0.92.5 (2060ec1f9f, 2020-04-08)"><metadata
     id="metadata8"><rdf:RDF><cc:Work
         rdf:about=""><dc:format>image/svg+xml</dc:format><dc:type
           rdf:resource="http://purl.org/dc/dcmitype/StillImage" /><dc:title></dc:title></cc:Work></rdf:RDF></metadata><defs
     id="defs6" /><sodipodi:namedview
     pagecolor="#ffffff"
     bordercolor="#666666"
     borderopacity="1"
     objecttolerance="10"
     gridtolerance="10"
     guidetolerance="10"
     inkscape:pageopacity="0"
     inkscape:pageshadow="2"
     inkscape:window-width="2560"
     inkscape:window-height="1376"
     id="namedview4"
     showgrid="false"
     fit-margin-top="0"
     fit-margin-left="0"
     fit-margin-right="0"
     fit-margin-bottom="0"
     inkscape:snap-bbox="true"
     inkscape:bbox-paths="true"
     inkscape:snap-page="true"
     inkscape:bbox-nodes="true"
     inkscape:snap-global="false"
     inkscape:zoom="11.328227"
     inkscape:cx="16.397875"
     inkscape:cy="17.828906"
     inkscape:window-x="0"
     inkscape:window-y="27"
     inkscape:window-maximized="1"
     inkscape:current-layer="g10" /><g
     id="g10"
     inkscape:groupmode="layer"
     inkscape:label="ink_ext_XXXXXX"
     transform="matrix(1.3333333,0,0,-1.3333333,-181.76,614.36016)"><path
       inkscape:connector-curvature="0"
       id="path16"
       style="fill:#1b1817;fill-opacity:1;fill-rule:evenodd;stroke:none;stroke-width:0.14608382"
       d="m 160.31779,459.91631 c -13.13878,0 -23.79412,-10.65387 -23.79412,-23.79703 0,-10.51219 6.81772,-19.43207 16.27372,-22.58017 1.19058,-0.21766 1.62445,0.51714 1.62445,1.14821 0,0.56535 -0.0205,2.06125 -0.0321,4.04653 -6.61903,-1.43746 -8.01559,3.19048 -8.01559,3.19048 -1.0825,2.74929 -2.64267,3.48117 -2.64267,3.48117 -2.16058,1.47545 0.16361,1.44623 0.16361,1.44623 2.38848,-0.168 3.64479,-2.45275 3.64479,-2.45275 2.12261,-3.63603 5.57017,-2.58568 6.92584,-1.9765 0.2162,1.53679 0.83122,2.58567 1.51049,3.18022 -5.28384,0.60187 -10.83939,2.64267 -10.83939,11.76121 0,2.59884 0.92762,4.72143 2.4498,6.38532 -0.24541,0.60187 -1.06201,3.02101 0.23375,6.29767 0,0 1.99697,0.63985 6.54308,-2.43814 1.89763,0.52736 3.93404,0.79031 5.95729,0.80055 2.02181,-0.0102 4.05677,-0.27319 5.95731,-0.80055 4.54319,3.07799 6.53724,2.43814 6.53724,2.43814 1.29867,-3.27666 0.48208,-5.6958 0.23812,-6.29767 1.52511,-1.66389 2.44545,-3.78648 2.44545,-6.38532 0,-9.14191 -5.56435,-11.15349 -10.86426,-11.7422 0.85314,-0.7348 1.61423,-2.18688 1.61423,-4.40735 0,-3.18025 -0.0291,-5.74694 -0.0291,-6.52704 0,-0.63692 0.4295,-1.37755 1.63615,-1.14528 9.44869,3.15393 16.26055,12.06652 16.26055,22.57724 0,13.14316 -10.65532,23.79703 -23.79847,23.79703" /></g></svg>